<?xml version="1.0" encoding="utf-8"?>
<!-- Generator: Adobe Illustrator 26.0.0, SVG Export Plug-In . SVG Version: 6.00 Build 0)  -->
<svg version="1.1" id="Layer_1" xmlns="http://www.w3.org/2000/svg" xmlns:xlink="http://www.w3.org/1999/xlink" x="0px" y="0px"
	 viewBox="0 0 517 341" style="enable-background:new 0 0 517 341;" xml:space="preserve">
<style type="text/css">
	.st0{fill:#FFD45A;}
	.st1{fill:#E52929;}
	.st2{fill:#FF6969;}
	.st3{clip-path:url(#SVGID_00000005956070321251266820000006732741526272534961_);fill:#FFFFFF;}
	.st4{fill:#FFECBD;}
	.st5{fill:#FFC73B;}
</style>
<circle class="st0" cx="258.81" cy="171" r="170.5"/>
<g>
	<path class="st1" d="M239.7,142.59c0.01-0.02,0.01-0.03,0.02-0.05c0.08-0.24,0.16-0.48,0.23-0.72c1.98-6.12,1.78-9.66,1.78-9.66
		h-0.01c0.05-0.84,0.09-1.68,0.09-2.54c0-20.23-14.6-36.63-32.6-36.63c-14.44,0-26.69,10.56-30.97,25.17
		c-0.6,0.19-0.93,0.31-0.93,0.31s-0.33-0.11-0.93-0.31C172.1,103.56,159.86,93,145.41,93c-18.01,0-32.6,16.4-32.6,36.63
		c0,0.85,0.04,1.7,0.09,2.54h-0.01c0,0-0.21,3.53,1.78,9.66c0.08,0.24,0.15,0.48,0.23,0.72c0.01,0.02,0.01,0.03,0.02,0.05
		c0.19,0.56,0.39,1.1,0.6,1.65c1.22,3.22,3.04,7,5.65,11.24c8.54,16.01,25.31,29.55,38.32,38.32l0.01,0.01l0,0
		c10.03,6.76,17.81,10.68,17.81,10.68s7.78-3.92,17.81-10.68l0,0l0.01-0.01c13-8.76,29.78-22.31,38.32-38.32
		c2.62-4.24,4.43-8.03,5.65-11.24C239.32,143.69,239.51,143.14,239.7,142.59z"/>
	<path class="st1" d="M402.7,142.59c0.01-0.02,0.01-0.03,0.02-0.05c0.08-0.24,0.16-0.48,0.23-0.72c1.98-6.12,1.78-9.66,1.78-9.66
		h-0.01c0.05-0.84,0.09-1.68,0.09-2.54c0-20.23-14.6-36.63-32.6-36.63c-14.44,0-26.69,10.56-30.97,25.17
		c-0.6,0.19-0.93,0.31-0.93,0.31s-0.33-0.11-0.93-0.31C335.1,103.56,322.86,93,308.41,93c-18.01,0-32.6,16.4-32.6,36.63
		c0,0.85,0.04,1.7,0.09,2.54h-0.01c0,0-0.21,3.53,1.78,9.66c0.08,0.24,0.15,0.48,0.23,0.72c0.01,0.02,0.01,0.03,0.02,0.05
		c0.19,0.56,0.39,1.1,0.6,1.65c1.22,3.22,3.04,7,5.65,11.24c8.54,16.01,25.31,29.55,38.32,38.32l0.01,0.01l0,0
		c10.03,6.76,17.81,10.68,17.81,10.68s7.78-3.92,17.81-10.68l0,0l0.01-0.01c13-8.76,29.78-22.31,38.32-38.32
		c2.62-4.24,4.43-8.03,5.65-11.24C402.32,143.69,402.51,143.14,402.7,142.59z"/>
</g>
<g>
	<path class="st2" d="M309.31,214c0-21-24.65-16.6-30.45-13c-7.18,4.46-16,5.12-20.05,5.17c-4.05-0.05-12.87-0.71-20.05-5.17
		c-5.8-3.6-30.45-8-30.45,13c0,19.77,24.35,31.4,48.27,32.7v0.12c0.74,0,1.48-0.01,2.23-0.03c0.74,0.02,1.49,0.03,2.23,0.03v-0.12
		C284.96,245.4,309.31,233.77,309.31,214z"/>
	<g>
		<g>
			<defs>
				<path id="SVGID_1_" d="M309.31,214c0-21-24.65-16.6-30.45-13c-7.18,4.46-16,5.12-20.05,5.17c-4.05-0.05-12.87-0.71-20.05-5.17
					c-5.8-3.6-30.45-8-30.45,13c0,19.77,24.35,31.4,48.27,32.7v0.12c0.74,0,1.48-0.01,2.23-0.03c0.74,0.02,1.49,0.03,2.23,0.03
					v-0.12C284.96,245.4,309.31,233.77,309.31,214z"/>
			</defs>
			<clipPath id="SVGID_00000083058120411886651330000005150505434728156591_">
				<use xlink:href="#SVGID_1_"  style="overflow:visible;"/>
			</clipPath>
			<path style="clip-path:url(#SVGID_00000083058120411886651330000005150505434728156591_);fill:#FFFFFF;" d="M285.66,197.97
				L258.31,180l-27.35,17.97c0,0-5.65,24.43,27.35,24.43S285.66,197.97,285.66,197.97z"/>
		</g>
	</g>
</g>
<g>
	<g>
		<path class="st4" d="M53.62,144.5c-2.91,0.62-10.22,2.68-16.81,10.29c-7.41,8.56-9.24,18.77-9.73,22.21
			c-0.49-3.43-2.33-13.65-9.73-22.21c-6.59-7.62-13.9-9.67-16.81-10.29c1.88-0.06,11.47-0.61,19.02-10.29
			c7-8.98,7.47-19.67,7.52-22.21c0.05,2.35,0.47,13.58,7.96,22.75C36.4,136.41,43.03,144.18,53.62,144.5z"/>
		<path class="st5" d="M27.08,178c-0.5,0-0.92-0.37-0.99-0.86c-0.69-4.79-2.83-13.99-9.5-21.7c-5.99-6.93-12.76-9.22-16.26-9.97
			c-0.49-0.11-0.83-0.56-0.79-1.07s0.46-0.88,0.96-0.9c2.54-0.08,11.35-1.04,18.27-9.91c6.35-8.14,7.23-17.83,7.31-21.61
			c0.01-0.54,0.46-0.98,1-0.98l0,0c0.54,0,0.99,0.44,1,0.98c0.08,3.9,0.99,13.87,7.74,22.14c2.23,2.73,8.42,9.1,17.83,9.38
			c0.51,0.02,0.92,0.41,0.97,0.91c0.05,0.5-0.29,0.96-0.79,1.07c-3.5,0.75-10.27,3.04-16.26,9.97c-6.67,7.71-8.81,16.9-9.5,21.7
			C28,177.63,27.58,178,27.08,178z M5.13,144.85c3.79,1.48,8.58,4.21,12.97,9.29c5.1,5.89,7.67,12.59,8.98,17.73
			c1.3-5.14,3.88-11.84,8.98-17.73c4.35-5.03,9.11-7.77,12.88-9.25c-7.61-1.8-12.65-7.04-14.66-9.5c-4.1-5.02-6.16-10.61-7.19-15.24
			c-0.99,4.47-2.94,9.83-6.73,14.69C15.33,141.26,9.34,143.83,5.13,144.85z"/>
	</g>
	<g>
		<path class="st4" d="M427.62,222.5c-2.91,0.62-10.22,2.68-16.81,10.29c-7.41,8.56-9.24,18.77-9.73,22.21
			c-0.49-3.43-2.33-13.65-9.73-22.21c-6.59-7.62-13.9-9.67-16.81-10.29c1.88-0.06,11.47-0.61,19.02-10.29
			c7-8.98,7.47-19.67,7.52-22.21c0.05,2.35,0.47,13.58,7.96,22.75C410.4,214.41,417.03,222.18,427.62,222.5z"/>
		<path class="st5" d="M401.08,256c-0.5,0-0.92-0.37-0.99-0.86c-0.69-4.8-2.83-13.99-9.5-21.7c-5.99-6.93-12.76-9.22-16.26-9.97
			c-0.49-0.11-0.83-0.56-0.79-1.07s0.46-0.89,0.96-0.91c2.54-0.08,11.35-1.04,18.27-9.91c6.35-8.14,7.23-17.83,7.31-21.61
			c0.01-0.54,0.46-0.98,1-0.98l0,0c0.54,0,0.99,0.44,1,0.98c0.08,3.9,0.99,13.87,7.74,22.14c2.23,2.73,8.42,9.1,17.83,9.38
			c0.5,0.02,0.92,0.41,0.97,0.91s-0.29,0.96-0.79,1.07c-3.5,0.75-10.27,3.04-16.26,9.97c-6.66,7.7-8.81,16.9-9.5,21.7
			C402,255.63,401.58,256,401.08,256z M379.13,222.85c3.79,1.48,8.58,4.21,12.97,9.29c5.1,5.89,7.67,12.59,8.98,17.74
			c1.3-5.14,3.88-11.84,8.98-17.74c4.35-5.03,9.1-7.77,12.88-9.25c-7.62-1.8-12.65-7.04-14.66-9.5c-4.1-5.02-6.16-10.61-7.19-15.24
			c-0.99,4.47-2.94,9.83-6.73,14.69C389.33,219.26,383.34,221.83,379.13,222.85z"/>
	</g>
	<g>
		<path class="st4" d="M132.08,204c-5.37,1.15-18.87,4.94-31.03,19c-13.67,15.81-17.06,34.66-17.97,41
			c-0.91-6.34-4.3-25.19-17.97-41c-12.16-14.06-25.67-17.85-31.03-19c3.47-0.11,21.18-1.13,35.12-19
			c12.93-16.57,13.78-36.32,13.88-41c0.09,4.34,0.88,25.07,14.7,42C100.29,189.07,112.53,203.42,132.08,204z"/>
		<path class="st5" d="M83.08,265c-0.5,0-0.92-0.37-0.99-0.86c-1.28-8.94-5.29-26.1-17.73-40.49
			c-11.23-12.98-23.92-17.27-30.49-18.68c-0.49-0.11-0.83-0.56-0.79-1.07c0.04-0.5,0.46-0.89,0.96-0.91
			c4.78-0.16,21.37-1.97,34.36-18.62c11.88-15.23,13.52-33.33,13.67-40.41c0.01-0.54,0.46-0.98,1-0.98l0,0c0.54,0,0.99,0.44,1,0.98
			c0.15,7.29,1.85,25.92,14.47,41.39c4.19,5.12,15.83,17.1,33.56,17.63c0.51,0.02,0.92,0.41,0.97,0.91s-0.29,0.96-0.79,1.07
			c-6.57,1.4-19.26,5.7-30.49,18.68c-12.45,14.39-16.45,31.54-17.73,40.49C84,264.63,83.58,265,83.08,265z M39.51,204.44
			c7.2,2.37,17.26,7.38,26.36,17.9c10.52,12.16,15.17,26.23,17.21,35.93c2.04-9.7,6.69-23.76,17.21-35.93
			c9.06-10.48,19.07-15.49,26.27-17.87c-15.46-2.51-25.64-13.05-29.55-17.84c-8.77-10.74-12.43-22.95-13.93-32.06
			c-1.46,8.83-4.93,20.58-13.09,31.04C59.67,198.84,47.41,203.11,39.51,204.44z"/>
	</g>
	<g>
		<path class="st4" d="M517.08,153c-5.37,1.15-18.87,4.94-31.03,19c-13.67,15.81-17.06,34.66-17.97,41
			c-0.91-6.34-4.3-25.19-17.97-41c-12.16-14.06-25.67-17.85-31.03-19c3.47-0.11,21.18-1.13,35.12-19
			c12.93-16.57,13.78-36.32,13.88-41c0.09,4.34,0.88,25.07,14.7,42C485.29,138.07,497.53,152.42,517.08,153z"/>
		<path class="st5" d="M468.08,214c-0.5,0-0.92-0.37-0.99-0.86c-1.28-8.95-5.29-26.1-17.73-40.49
			c-11.23-12.98-23.92-17.27-30.49-18.68c-0.49-0.11-0.83-0.56-0.79-1.07c0.04-0.5,0.46-0.89,0.96-0.91
			c4.78-0.16,21.37-1.97,34.36-18.62c11.88-15.23,13.52-33.33,13.67-40.41c0.01-0.54,0.46-0.98,1-0.98l0,0c0.54,0,0.99,0.44,1,0.98
			c0.15,7.29,1.85,25.93,14.47,41.39c4.19,5.12,15.83,17.1,33.56,17.63c0.5,0.02,0.92,0.41,0.97,0.91s-0.29,0.96-0.79,1.07
			c-6.57,1.4-19.26,5.7-30.49,18.68c-12.44,14.39-16.45,31.54-17.73,40.49C469,213.63,468.58,214,468.08,214z M424.51,153.44
			c7.2,2.37,17.26,7.38,26.36,17.9c10.52,12.16,15.17,26.23,17.21,35.93c2.04-9.7,6.69-23.77,17.21-35.93
			c9.06-10.48,19.07-15.49,26.26-17.87c-15.45-2.51-25.64-13.05-29.55-17.84c-8.77-10.74-12.43-22.95-13.93-32.06
			c-1.46,8.83-4.93,20.58-13.09,31.04C444.67,147.84,432.41,152.11,424.51,153.44z"/>
	</g>
</g>
</svg>
