<?xml version="1.0" encoding="utf-8"?>
<!-- Generator: Adobe Illustrator 26.0.0, SVG Export Plug-In . SVG Version: 6.00 Build 0)  -->
<svg version="1.1" id="Layer_1" xmlns="http://www.w3.org/2000/svg" xmlns:xlink="http://www.w3.org/1999/xlink" x="0px" y="0px"
	 viewBox="0 0 610 135" style="enable-background:new 0 0 610 135;" xml:space="preserve">
<style type="text/css">
	.st0{fill:#FFFFFF;}
	.st1{fill:#FFAA2E;}
	.st2{fill:none;stroke:#FFAA2E;stroke-width:6;stroke-linecap:round;stroke-linejoin:round;stroke-miterlimit:10;}
	.st3{fill:#E52929;}
	.st4{fill:#FFD45A;}
</style>
<g>
	<g>
		<path class="st0" d="M105.6,117.3c-4.88,0-9.83-0.24-14.71-0.72c-4.81-0.47-9.31-1.08-13.37-1.79c-4.12-0.71-7.88-1.51-11.18-2.36
			c-3.33-0.86-5.9-1.69-7.85-2.52c-4.71-1.64-8.21-5.04-9.87-9.58c-1.18-3.22-1.9-8.29,1.41-14.07c0.05-0.08,0.1-0.17,0.15-0.26
			c1.82-2.96,4.47-5.04,7.67-6.02c1.89-0.58,3.82-0.87,5.73-0.87c0.25,0,0.49,0.01,0.74,0.03c1.53,0.12,3.09,0.38,4.63,0.78
			c0.94,0.25,1.85,0.47,2.75,0.67c0.38,0.09,0.75,0.2,1.12,0.33c0.13,0.05,0.9,0.32,3.45,0.95c1.87,0.47,4.26,0.95,7.09,1.43
			c1.44,0.25,3.02,0.48,4.71,0.69v-4.73c-0.01,0-0.02,0-0.02-0.01c-5.28-1.67-9.9-3.97-13.74-6.84c-4.22-3.07-7.46-6.87-9.61-11.26
			c-2.1-4.3-3.16-8.93-3.16-13.76c0-4.89,1.06-9.56,3.14-13.89c2.15-4.47,5.42-8.31,9.7-11.42c3.82-2.77,8.42-5.02,13.67-6.68
			c5.2-1.64,10.91-2.47,16.98-2.47c6.14,0,11.89,0.83,17.09,2.47c5.24,1.66,9.84,3.9,13.67,6.67c4.24,3.15,7.46,6.99,9.59,11.42
			c2.09,4.33,3.14,9,3.14,13.89c0,4.83-1.06,9.46-3.16,13.76c-2.13,4.38-5.32,8.16-9.48,11.25c-3.83,2.87-8.46,5.18-13.76,6.85
			c-0.05,0.01-0.09,0.03-0.14,0.04v4.74c1.77-0.26,3.36-0.54,4.74-0.83c2.4-0.51,4.35-0.99,5.8-1.43c1.72-0.52,3.06-0.93,4.03-1.23
			c0.16-0.05,0.33-0.1,0.5-0.14c0.98-0.24,2.12-0.51,3.43-0.8c1.69-0.37,3.44-0.61,5.2-0.71c0.37-0.02,0.76-0.04,1.15-0.04
			c2.04,0,4.04,0.33,5.94,0.99c3.28,1.14,5.94,3.35,7.69,6.4c0.18,0.32,0.35,0.65,0.49,0.98c1.82,4.26,2.05,8.68,0.66,12.78
			c-1.08,3.18-3.66,7.44-9.81,9.79c-1.89,0.85-4.36,1.7-7.54,2.58c-3.14,0.87-6.77,1.67-10.79,2.39c-4.08,0.72-8.52,1.32-13.21,1.8
			C115.5,117.06,110.57,117.3,105.6,117.3z M96.57,46.28c-0.45,0.31-0.6,0.52-0.64,0.59c-0.13,0.24-0.13,0.34-0.13,0.41
			c0,0.08,0,0.17,0.13,0.4c0.05,0.09,0.21,0.32,0.75,0.67c0.99,0.65,2.23,1.2,3.68,1.65c1.37,0.43,2.95,0.64,4.69,0.64
			c1.66,0,3.2-0.22,4.57-0.64c1.36-0.42,2.49-0.93,3.36-1.51c0.45-0.33,0.86-0.74,1.19-1.22c-0.3-0.43-0.67-0.81-1.12-1.16
			c-0.91-0.54-2.06-1.03-3.43-1.46c-1.37-0.43-2.9-0.64-4.57-0.64c-1.74,0-3.31,0.22-4.68,0.64C98.88,45.12,97.6,45.67,96.57,46.28z
			"/>
		<path class="st1" d="M105.04,15.44c5.89,0,11.38,0.79,16.34,2.36c4.99,1.58,9.34,3.7,12.95,6.31c3.91,2.91,6.85,6.42,8.81,10.48
			c1.92,3.99,2.9,8.3,2.9,12.8c0,4.44-0.98,8.71-2.91,12.67c-1.96,4.01-4.89,7.49-8.72,10.34c-3.61,2.71-8,4.89-13.02,6.48
			c-0.62,0.2-1.25,0.38-1.88,0.55v9.48c3.01-0.38,5.62-0.8,7.76-1.25c2.46-0.52,4.49-1.02,6.01-1.48c1.72-0.52,3.07-0.94,4.04-1.23
			c0.12-0.04,0.24-0.07,0.36-0.1c0.96-0.24,2.08-0.5,3.36-0.78c1.56-0.34,3.18-0.56,4.81-0.66c0.33-0.02,0.67-0.03,1.01-0.03
			c1.76,0,3.49,0.29,5.13,0.85c2.7,0.94,4.89,2.76,6.34,5.28c0.13,0.23,0.25,0.48,0.36,0.72c1.58,3.68,1.78,7.48,0.59,10.99
			c-0.92,2.7-3.12,6.29-8.41,8.29c-1.78,0.81-4.16,1.62-7.25,2.48c-3.06,0.84-6.61,1.63-10.56,2.34c-4.01,0.71-8.38,1.3-13.01,1.77
			c-4.69,0.47-9.55,0.71-14.42,0.71c-4.8,0-9.66-0.24-14.46-0.71c-4.75-0.47-9.18-1.06-13.18-1.77c-4.05-0.7-7.76-1.48-10.98-2.32
			c-3.25-0.84-5.73-1.64-7.58-2.43c-4.03-1.38-7.01-4.24-8.42-8.1c-1-2.73-1.6-7.02,1.23-11.97c0.04-0.07,0.08-0.13,0.12-0.2
			c1.5-2.43,3.66-4.14,6.27-4.94c1.65-0.51,3.33-0.76,5-0.76c0.18,0,0.36,0.01,0.54,0.02c1.38,0.11,2.79,0.35,4.2,0.71
			c0.96,0.25,1.9,0.48,2.81,0.69c0.28,0.06,0.56,0.15,0.83,0.24c0.27,0.1,1.17,0.4,3.7,1.03c1.94,0.48,4.38,0.98,7.27,1.47
			c2.26,0.39,4.82,0.73,7.63,1.04V77.4c-0.6-0.16-1.19-0.34-1.77-0.52c-5.01-1.58-9.38-3.76-13-6.46
			c-3.91-2.85-6.89-6.33-8.86-10.36c-1.93-3.96-2.91-8.22-2.91-12.67c0-4.51,0.97-8.81,2.89-12.8c1.97-4.09,4.97-7.62,8.92-10.48
			c3.61-2.61,7.96-4.74,12.95-6.32C93.77,16.23,99.23,15.44,105.04,15.44 M105.04,53.15c1.92,0,3.71-0.25,5.31-0.76
			c1.59-0.5,2.94-1.11,4-1.82c0.83-0.6,1.49-1.29,2.01-2.11c0.37-0.57,0.41-0.93,0.41-1.18s-0.05-0.61-0.41-1.18
			c-0.51-0.79-1.14-1.46-1.93-2.05c-1.1-0.67-2.48-1.27-4.09-1.78c-1.61-0.5-3.4-0.75-5.31-0.75c-1.99,0-3.82,0.25-5.43,0.76
			c-1.69,0.53-3.17,1.16-4.39,1.89c-0.71,0.48-1.2,0.97-1.49,1.5c-0.3,0.55-0.44,1.06-0.44,1.61c0,0.56,0.13,1.05,0.44,1.61
			c0.31,0.56,0.82,1.07,1.58,1.56c1.19,0.77,2.63,1.43,4.3,1.95C101.22,52.9,103.05,53.15,105.04,53.15 M105.04,10.44
			c-6.32,0-12.29,0.87-17.73,2.59c-5.5,1.74-10.34,4.1-14.38,7.04c-4.62,3.35-8.15,7.51-10.49,12.36
			c-2.25,4.67-3.39,9.71-3.39,14.97c0,5.21,1.15,10.21,3.42,14.86c2.32,4.76,5.81,8.86,10.38,12.19c3.64,2.71,7.91,4.94,12.74,6.63
			v0.06c-0.62-0.09-1.22-0.19-1.79-0.29c-2.77-0.47-5.09-0.94-6.9-1.39c-2.48-0.62-3.17-0.86-3.2-0.87
			c-0.47-0.17-0.95-0.31-1.42-0.42c-0.9-0.21-1.78-0.42-2.67-0.66c-1.7-0.44-3.4-0.73-5.07-0.86c-0.31-0.02-0.62-0.04-0.93-0.04
			c-2.16,0-4.34,0.33-6.46,0.98c-3.79,1.17-6.92,3.62-9.06,7.1c-0.08,0.13-0.14,0.24-0.21,0.35c-2.94,5.15-3.51,10.89-1.58,16.15
			c1.91,5.23,5.92,9.15,11.31,11.05c2.06,0.87,4.72,1.72,8.12,2.61c3.36,0.87,7.19,1.68,11.39,2.41c4.11,0.72,8.67,1.34,13.54,1.82
			c4.96,0.49,9.99,0.74,14.95,0.74c5.04,0,10.07-0.25,14.92-0.74c4.75-0.48,9.25-1.09,13.38-1.82c4.11-0.74,7.81-1.56,11.02-2.45
			c3.27-0.91,5.84-1.78,7.84-2.68c5.48-2.11,9.46-6.12,11.22-11.29c1.6-4.7,1.35-9.74-0.73-14.57c-0.18-0.42-0.39-0.83-0.61-1.23
			c-2.06-3.59-5.19-6.2-9.04-7.53c-2.17-0.75-4.45-1.13-6.76-1.13c-0.44,0-0.88,0.01-1.31,0.04c-1.88,0.11-3.76,0.37-5.58,0.77
			c-1.38,0.3-2.53,0.57-3.51,0.81c-0.21,0.05-0.42,0.11-0.62,0.17c-0.96,0.3-2.3,0.71-4.02,1.23c-1.39,0.42-3.27,0.89-5.59,1.38
			c-0.52,0.11-1.07,0.22-1.66,0.33c4.87-1.7,9.18-3.95,12.84-6.69c4.46-3.32,7.91-7.41,10.22-12.15c2.27-4.65,3.42-9.64,3.42-14.86
			c0-5.26-1.14-10.3-3.39-14.97c-2.31-4.8-5.78-8.94-10.33-12.32l-0.02-0.02l-0.03-0.02c-4.04-2.93-8.88-5.3-14.38-7.03
			C117.44,11.31,111.44,10.44,105.04,10.44L105.04,10.44z M100.25,47.33c0.27-0.1,0.56-0.19,0.85-0.28
			c1.13-0.35,2.45-0.53,3.94-0.53c1.41,0,2.7,0.18,3.83,0.53c0.29,0.09,0.58,0.19,0.85,0.29c-0.26,0.1-0.54,0.19-0.85,0.29
			c-1.13,0.35-2.41,0.53-3.83,0.53c-1.49,0-2.81-0.18-3.94-0.53C100.8,47.53,100.52,47.43,100.25,47.33L100.25,47.33z"/>
	</g>
	<g>
		<path class="st0" d="M185.33,130.74c-13.66,0-22.15-8.4-22.15-21.92V94.14c0-0.77,0.09-1.52,0.27-2.26
			c-0.18-0.74-0.27-1.49-0.27-2.26v-8.45h-4.28c-5.24,0-9.5-4.26-9.5-9.5V59.7c0-5.24,4.26-9.5,9.5-9.5h5.24
			c-1.02-2.71-1.53-5.77-1.53-9.13V21.31c0-5.24,4.26-9.5,9.5-9.5h15.02c5.24,0,9.5,4.26,9.5,9.5v10.26l44.59,0
			c5.94,0,12.32,4.21,12.32,13.45c0,1.88-0.16,3.64-0.47,5.26c5.48,0.64,10.86,4.88,10.86,13.37c0,12.37-7.35,17.1-14.01,17.49
			c0.16,0.98,0.24,2.01,0.24,3.06v2.37c0,6.38-0.86,11.75-2.55,16.01c3.08,2.33,4.81,6.04,4.81,10.52
			c0,13.01-8.04,17.63-14.92,17.63H185.33z"/>
		<path class="st1" d="M187.13,14.31c3.87,0,7,3.13,7,7v12.76l47.09,0c4.89,0,9.82,3.39,9.82,10.95c0,3.16-0.47,5.68-1.23,7.68h1.8
			c4.89,0,9.82,3.39,9.82,10.95c0,11.07-6.42,15.02-12.42,15.02h-2.33c0.64,1.64,0.98,3.49,0.98,5.53v2.37c0,7.76-1.29,13.2-3.23,17
			c3.06,1.45,5.49,4.56,5.49,9.54c0,11.16-6.42,15.13-12.42,15.13h-52.17c-12.3,0-19.65-7.26-19.65-19.42V94.14
			c0-0.79,0.13-1.55,0.37-2.26c-0.24-0.71-0.37-1.47-0.37-2.26V78.67h-6.78c-3.87,0-7-3.13-7-7V59.7c0-3.87,3.13-7,7-7h9.28
			c-2-3.08-3.06-7-3.06-11.63V21.31c0-3.87,3.13-7,7-7H187.13 M187.13,9.31h-15.02c-6.62,0-12,5.38-12,12v19.76
			c0,2.34,0.23,4.56,0.69,6.63h-1.9c-6.62,0-12,5.38-12,12v11.97c0,6.62,5.38,12,12,12h1.78v5.95c0,0.76,0.07,1.52,0.21,2.26
			c-0.14,0.74-0.21,1.5-0.21,2.26v14.68c0,14.84,9.67,24.42,24.65,24.42h52.17c8.67,0,17.42-6.22,17.42-20.13
			c0-4.59-1.55-8.51-4.37-11.29c1.4-4.25,2.11-9.35,2.11-15.24V84.2c0-0.3-0.01-0.6-0.02-0.9c7.33-1.52,13.79-7.76,13.79-19.65
			c0-8.43-4.83-13.62-10.55-15.33c0.11-1.06,0.16-2.16,0.16-3.3c0-10.47-7.46-15.95-14.82-15.95l-42.09,0v-7.76
			C199.13,14.69,193.75,9.31,187.13,9.31L187.13,9.31z"/>
	</g>
	<g>
		<path class="st0" d="M335.96,131.31c-7.99,0-13.57-5.53-13.57-13.45v-7.37c-0.41,0.03-0.75,0.04-1,0.04h-54.54
			c-5.24,0-9.5-4.26-9.5-9.5V88.61c0-5.24,4.26-9.5,9.5-9.5h13.53c-3.66-1.72-6.84-3.92-9.47-6.55c-3.22-3.13-5.69-6.91-7.3-11.22
			c-1.53-4.07-2.3-8.42-2.3-12.93c0-4.57,0.77-8.97,2.29-13.07c1.62-4.38,4.1-8.2,7.38-11.38c3.04-2.94,6.8-5.34,11.16-7.15
			c4.42-1.83,9.23-2.75,14.3-2.75c5.31,0,10.23,0.93,14.62,2.77c4.31,1.8,8.03,4.2,11.06,7.12c0,0,0.23,0.23,0.28,0.28v-4.05
			c0-5.24,4.26-9.5,9.5-9.5h15.02c5.24,0,9.5,4.26,9.5,9.5v86.27c0,23.06-14.1,24.86-18.42,24.86H335.96z M322.4,79.11v-6.75
			c-0.05,0.05-0.1,0.1-0.16,0.16c-2.65,2.65-5.83,4.86-9.48,6.59H322.4z M296.44,45.26c-0.1,0-0.15,0.01-0.24,0.05
			c-0.15,0.07-0.25,0.15-0.37,0.28c-0.26,0.3-0.46,0.65-0.63,1.09c-0.15,0.38-0.21,0.79-0.21,1.28c0,0.56,0.07,1.01,0.21,1.38
			c0.17,0.45,0.37,0.79,0.63,1.09l0.19,0.23c0.11,0.13,0.15,0.16,0.18,0.17c0.08,0.04,0.13,0.05,0.24,0.05
			c0.16,0,0.23-0.02,0.23-0.02c0.13-0.07,0.32-0.23,0.53-0.47l0.19-0.21c0.18-0.2,0.29-0.38,0.39-0.64
			c0.15-0.43,0.23-0.95,0.23-1.59c0-0.57-0.07-1.04-0.23-1.49c-0.09-0.24-0.2-0.43-0.37-0.62c-0.25-0.26-0.49-0.46-0.76-0.59
			c0,0,0,0,0,0C296.62,45.27,296.55,45.26,296.44,45.26z"/>
		<path class="st1" d="M346.91,13.18c3.87,0,7,3.13,7,7v86.27c0,20.18-11.13,22.36-15.92,22.36h-2.03c-6.62,0-11.07-4.4-11.07-10.95
			V107.5c-1.57,0.47-2.89,0.53-3.5,0.53h-54.54c-3.87,0-7-3.13-7-7V88.61c0-3.87,3.13-7,7-7h57.03c0.34,0,0.68,0.02,1.02,0.05V65.04
			c-1.24,2.09-2.72,4-4.42,5.71c-2.82,2.82-6.31,5.11-10.38,6.81c-4.09,1.71-8.68,2.58-13.66,2.58c-4.74,0-9.23-0.86-13.35-2.56
			c-4.1-1.7-7.6-3.98-10.42-6.79c-2.98-2.89-5.24-6.37-6.73-10.32c-1.42-3.79-2.14-7.84-2.14-12.06c0-4.28,0.72-8.38,2.13-12.2
			c1.49-4.02,3.77-7.54,6.78-10.45c2.82-2.72,6.31-4.95,10.38-6.63c4.11-1.7,8.6-2.56,13.35-2.56c4.98,0,9.57,0.87,13.66,2.58
			c4.02,1.68,7.48,3.91,10.29,6.61c0.03,0.03,0.06,0.06,0.09,0.09c1.71,1.71,3.18,3.62,4.42,5.73v-11.4c0-3.87,3.13-7,7-7H346.91
			 M296.44,53.38c0.68,0,1.06-0.15,1.29-0.26c0.47-0.23,0.91-0.58,1.35-1.08c0.05-0.05,0.1-0.11,0.15-0.16
			c0.41-0.44,0.7-0.91,0.9-1.49c0.25-0.71,0.38-1.51,0.38-2.43c0-0.85-0.12-1.61-0.38-2.33c-0.2-0.56-0.5-1.05-0.9-1.48
			c-0.46-0.5-0.96-0.87-1.5-1.13c-0.22-0.11-0.6-0.25-1.28-0.25c-0.47,0-0.88,0.09-1.31,0.29c-0.47,0.22-0.85,0.51-1.19,0.9
			c-0.45,0.52-0.8,1.11-1.07,1.83c-0.26,0.67-0.38,1.38-0.38,2.17c0,0.87,0.12,1.62,0.38,2.28c0.28,0.72,0.62,1.31,1.07,1.83
			c0.05,0.06,0.1,0.12,0.15,0.18c0.31,0.39,0.65,0.66,1.05,0.84C295.55,53.29,295.97,53.38,296.44,53.38 M346.91,8.18H331.9
			c-6.19,0-11.3,4.71-11.93,10.74c-2.38-1.71-5.04-3.18-7.93-4.39c-4.7-1.97-9.94-2.96-15.59-2.96c-5.4,0-10.54,0.99-15.26,2.94
			c-4.66,1.93-8.67,4.5-11.94,7.65c-3.56,3.44-6.24,7.58-7.99,12.31c-1.62,4.38-2.44,9.06-2.44,13.93c0,4.81,0.83,9.46,2.46,13.81
			c1.74,4.64,4.4,8.73,7.9,12.13c0.79,0.79,1.63,1.54,2.51,2.25h-4.82c-6.62,0-12,5.38-12,12v12.42c0,6.62,5.38,12,12,12h53.04v4.83
			c0,9.24,6.76,15.95,16.07,15.95h2.03c4.97,0,9.62-1.74,13.11-4.91c5.18-4.7,7.81-12.25,7.81-22.45V20.18
			C358.91,13.56,353.53,8.18,346.91,8.18L346.91,8.18z"/>
	</g>
	<g>
		<path class="st0" d="M449.56,133.34c-5.85,0-11.32-0.8-16.26-2.37c-5.04-1.6-9.44-3.81-13.08-6.56
			c-3.97-2.92-7.08-6.53-9.21-10.69c-2.16-4.2-3.25-8.74-3.25-13.48c0-4.73,1.09-9.27,3.23-13.49c1.33-2.62,3.04-5.03,5.12-7.19
			c-0.06-0.03-0.12-0.05-0.18-0.08c-4.46-1.85-8.31-4.37-11.43-7.48c-3.2-3.1-5.68-6.88-7.37-11.22c-1.63-4.17-2.46-8.64-2.46-13.27
			c0-4.7,0.82-9.21,2.44-13.41c1.7-4.4,4.21-8.23,7.45-11.37c3.11-3,6.93-5.46,11.37-7.31c4.5-1.87,9.39-2.82,14.55-2.82
			c5.39,0,10.39,0.95,14.86,2.83c4.39,1.85,8.18,4.3,11.28,7.29l0.09,0.08c0.41,0.41,0.81,0.84,1.2,1.27v-3.9
			c0-5.24,4.26-9.5,9.5-9.5h15.02c5.24,0,9.5,4.26,9.5,9.5v42.23c0,9.11-2.16,15.84-6.42,20.07c1,1.35,1.88,2.78,2.63,4.26
			c2.14,4.23,3.23,8.77,3.23,13.5c0,4.74-1.09,9.28-3.25,13.48c-2.12,4.12-5.18,7.72-9.1,10.69c-3.64,2.75-8.03,4.96-13.07,6.56
			C460.99,132.54,455.48,133.34,449.56,133.34z M442.19,100.36c0.73,0.49,1.7,0.9,2.87,1.23c1.3,0.37,2.81,0.55,4.49,0.55
			c1.61,0,3.08-0.18,4.37-0.55c1.18-0.33,2.15-0.75,2.89-1.24c0.09-0.06,0.17-0.12,0.25-0.17c-0.04-0.03-0.07-0.05-0.11-0.08
			c-0.8-0.47-1.82-0.88-3.02-1.22c-1.3-0.36-2.77-0.55-4.37-0.55c-1.68,0-3.19,0.19-4.49,0.55c-1.27,0.36-2.33,0.79-3.15,1.3
			C441.95,100.2,442.19,100.36,442.19,100.36z M429.28,44.39c-0.23,0.29-0.41,0.62-0.56,1.02c-0.18,0.49-0.27,1.03-0.27,1.65
			c0,0.68,0.09,1.27,0.27,1.76c0.16,0.45,0.37,0.8,0.65,1.13c0.22,0.25,0.43,0.42,0.68,0.54c0.04,0.02,0.12,0.06,0.42,0.06
			c0.17,0,0.29-0.03,0.45-0.1c0.26-0.12,0.45-0.27,0.65-0.5c0.33-0.38,0.58-0.8,0.79-1.32c0.17-0.43,0.25-0.94,0.25-1.56
			c0-0.55-0.08-1.02-0.26-1.46c-0.18-0.45-0.4-0.85-0.68-1.19c-0.21-0.2-0.45-0.37-0.75-0.51c-0.15-0.07-0.27-0.1-0.45-0.1
			c-0.3,0-0.39,0.04-0.42,0.06C429.76,44,429.51,44.17,429.28,44.39z"/>
		<path class="st1" d="M482.42,13.18c3.87,0,7,3.13,7,7v42.23c0,11.29-3.49,16.94-7.39,19.74c1.54,1.76,2.83,3.67,3.87,5.73
			c1.96,3.88,2.96,8.04,2.96,12.37c0,4.34-1,8.5-2.97,12.34c-1.94,3.79-4.76,7.1-8.38,9.84c-3.41,2.58-7.56,4.65-12.32,6.17
			c-4.7,1.49-9.95,2.25-15.62,2.25c-5.59,0-10.81-0.76-15.5-2.25c-4.77-1.52-8.92-3.59-12.32-6.17c-3.66-2.69-6.54-6.02-8.5-9.84
			c-1.97-3.85-2.97-8-2.97-12.34c0-4.33,1-8.49,2.96-12.37c1.81-3.56,4.4-6.69,7.71-9.32c-1.38-0.38-2.73-0.84-4.04-1.38
			c-4.16-1.73-7.74-4.07-10.63-6.95c-2.96-2.87-5.25-6.36-6.81-10.35c-1.52-3.88-2.29-8.04-2.29-12.37c0-4.39,0.77-8.6,2.28-12.51
			c1.57-4.06,3.87-7.58,6.86-10.47c2.88-2.79,6.44-5.07,10.59-6.8c4.19-1.74,8.76-2.63,13.59-2.63c5.06,0,9.73,0.89,13.89,2.64
			c4.11,1.73,7.64,4.01,10.51,6.78c0.03,0.03,0.06,0.06,0.09,0.08c2.2,2.21,4.02,4.78,5.44,7.68v-12.1c0-3.87,3.13-7,7-7H482.42
			 M430.47,53.04c0.54,0,1.03-0.11,1.52-0.34c0.57-0.27,1.03-0.62,1.46-1.11c0.52-0.59,0.92-1.27,1.23-2.06
			c0.28-0.73,0.42-1.54,0.42-2.48c0-0.86-0.14-1.64-0.43-2.37c-0.29-0.75-0.67-1.39-1.15-1.97c-0.43-0.44-0.94-0.8-1.53-1.08
			c-0.49-0.23-0.97-0.34-1.52-0.34c-0.59,0-1.08,0.1-1.51,0.31c-0.58,0.28-1.09,0.65-1.54,1.11c-0.45,0.53-0.79,1.13-1.05,1.83
			c-0.28,0.77-0.42,1.59-0.42,2.51c0,0.98,0.14,1.86,0.42,2.62c0.27,0.74,0.64,1.36,1.12,1.91c0.44,0.5,0.92,0.87,1.46,1.14
			C429.4,52.94,429.88,53.04,430.47,53.04 M460.4,70.66v-8.12c-1.35,2.76-3.08,5.23-5.17,7.37
			C457.01,70.08,458.73,70.33,460.4,70.66 M449.56,104.64c1.83,0,3.53-0.22,5.05-0.64c1.43-0.4,2.64-0.93,3.6-1.57
			c0.78-0.52,1.36-1.07,1.74-1.66c0.21-0.33,0.23-0.5,0.23-0.65c0-0.12-0.08-0.3-0.23-0.54c-0.36-0.56-0.91-1.09-1.64-1.59
			c-1-0.6-2.25-1.11-3.7-1.52c-1.52-0.43-3.22-0.64-5.05-0.64c-1.91,0-3.65,0.22-5.17,0.64c-1.5,0.42-2.78,0.96-3.8,1.59
			c-0.63,0.4-1.13,0.86-1.39,1.29c-0.26,0.43-0.26,0.66-0.26,0.77c0,0.32,0.07,0.57,0.26,0.88c0.26,0.43,0.76,0.9,1.47,1.35
			c0.04,0.03,0.09,0.06,0.13,0.08c0.96,0.64,2.17,1.17,3.59,1.57C445.91,104.43,447.65,104.64,449.56,104.64 M482.42,8.18H467.4
			c-6.04,0-11.04,4.48-11.88,10.29c-2.7-2.11-5.79-3.9-9.22-5.34c-4.78-2.01-10.11-3.03-15.83-3.03c-5.49,0-10.7,1.01-15.51,3.01
			c-4.73,1.97-8.81,4.6-12.15,7.82c-3.51,3.4-6.22,7.53-8.05,12.27c-1.73,4.49-2.61,9.31-2.61,14.31c0,4.95,0.88,9.72,2.63,14.19
			c1.82,4.66,4.49,8.73,7.96,12.1c2.64,2.63,5.76,4.86,9.29,6.65c-1.26,1.62-2.36,3.35-3.28,5.17c-2.32,4.58-3.5,9.5-3.5,14.62
			c0,5.15,1.19,10.07,3.53,14.63c2.31,4.5,5.66,8.39,9.95,11.56c3.86,2.91,8.5,5.24,13.8,6.93c5.19,1.65,10.91,2.48,17.02,2.48
			c6.18,0,11.94-0.84,17.13-2.48c5.31-1.69,9.96-4.03,13.83-6.95c4.22-3.2,7.53-7.08,9.81-11.54c2.34-4.56,3.53-9.48,3.53-14.63
			c0-5.12-1.18-10.04-3.5-14.63c-0.51-1-1.07-1.98-1.68-2.93c3.81-4.7,5.74-11.5,5.74-20.28V20.18
			C494.42,13.56,489.03,8.18,482.42,8.18L482.42,8.18z"/>
	</g>
	<g>
		<path class="st0" d="M545.99,113.24c-4.88,0-9.83-0.24-14.71-0.72c-4.81-0.47-9.31-1.08-13.37-1.79
			c-4.13-0.71-7.89-1.51-11.18-2.36c-3.32-0.86-5.89-1.69-7.85-2.52c-4.71-1.64-8.21-5.04-9.87-9.58
			c-1.18-3.23-1.89-8.29,1.41-14.07l0.16-0.27c1.82-2.95,4.47-5.03,7.66-6.02c1.89-0.58,3.82-0.87,5.73-0.87
			c0.25,0,0.49,0.01,0.74,0.03c1.53,0.12,3.09,0.38,4.64,0.78c0.94,0.25,1.85,0.47,2.75,0.67c0.38,0.09,0.75,0.2,1.12,0.33
			c0.13,0.05,0.91,0.32,3.45,0.95c1.88,0.47,4.26,0.95,7.08,1.43c2.84,0.49,6.19,0.91,9.96,1.26c3.71,0.35,7.83,0.52,12.27,0.52
			c1.24,0,2.45-0.01,3.61-0.04c0.03-0.59,0.12-1.19,0.26-1.77c0.45-1.83,0.88-3.67,1.28-5.5H512c-5.24,0-9.5-4.26-9.5-9.5V51.8
			c0-2.88,1.29-5.46,3.31-7.21c-2.67-1.68-4.44-4.66-4.44-8.04V24.13c0-5.24,4.26-9.5,9.5-9.5h62.67c9.46,0,15.82,6.31,15.82,15.71
			v9.26c0,10.39-1.33,22.24-3.95,35.28c0.22-0.02,0.44-0.03,0.66-0.05c0.37-0.02,0.76-0.04,1.15-0.04c2.04,0,4.04,0.33,5.94,0.99
			c3.28,1.14,5.94,3.35,7.69,6.4c0.18,0.32,0.34,0.64,0.49,0.98c1.82,4.26,2.05,8.68,0.66,12.78c-1.08,3.18-3.66,7.45-9.82,9.79
			c-1.89,0.85-4.36,1.7-7.54,2.58c-3.13,0.86-6.76,1.67-10.78,2.4c-4.08,0.72-8.52,1.32-13.21,1.8
			C555.89,113,550.95,113.24,545.99,113.24z"/>
		<path class="st1" d="M573.54,17.13c8.09,0,13.32,5.19,13.32,13.21v9.26c0,11.13-1.55,23.98-4.61,38.22
			c1.3-0.24,2.63-0.41,3.97-0.49c0.33-0.02,0.67-0.03,1.01-0.03c1.76,0,3.49,0.29,5.13,0.85c2.7,0.94,4.89,2.76,6.33,5.28
			c0.13,0.23,0.25,0.48,0.36,0.72c1.58,3.68,1.78,7.48,0.59,10.99c-0.92,2.7-3.12,6.3-8.41,8.29c-1.78,0.81-4.16,1.62-7.25,2.48
			c-3.05,0.84-6.61,1.63-10.56,2.34c-4.02,0.71-8.39,1.3-13.02,1.77c-4.69,0.47-9.54,0.71-14.42,0.71c-4.8,0-9.67-0.24-14.46-0.71
			c-4.74-0.47-9.18-1.06-13.18-1.77c-4.06-0.7-7.77-1.49-10.99-2.32c-3.24-0.84-5.73-1.64-7.58-2.43c-4.03-1.38-7.01-4.24-8.42-8.1
			c-1-2.73-1.6-7.02,1.23-11.97c0.04-0.07,0.08-0.13,0.12-0.2c1.5-2.43,3.66-4.14,6.27-4.94c1.65-0.51,3.33-0.76,5-0.76
			c0.18,0,0.36,0.01,0.54,0.02c1.38,0.11,2.8,0.35,4.21,0.71c0.96,0.25,1.89,0.48,2.81,0.69c0.28,0.06,0.56,0.15,0.83,0.24
			c0.27,0.1,1.17,0.4,3.7,1.03c1.94,0.49,4.39,0.98,7.27,1.47c2.9,0.5,6.31,0.93,10.15,1.29c3.78,0.35,7.99,0.53,12.5,0.53
			c2.25,0,4.38-0.04,6.36-0.13c-0.33-1.15-0.36-2.39-0.06-3.58c0.71-2.87,1.35-5.74,1.93-8.6H512c-3.87,0-7-3.13-7-7V51.8
			c0-3.87,3.13-7,7-7h45.64c0.02-0.42,0.04-0.83,0.06-1.24h-46.83c-3.87,0-7-3.13-7-7V24.13c0-3.87,3.13-7,7-7H573.54 M573.54,12.13
			h-62.67c-6.62,0-12,5.38-12,12v12.42c0,3.22,1.27,6.15,3.34,8.3c-1.4,1.96-2.22,4.36-2.22,6.94v12.42c0,3.23,1.29,6.17,3.37,8.33
			c-1.96,0.06-3.93,0.38-5.85,0.97c-3.79,1.17-6.92,3.62-9.06,7.1c-0.06,0.1-0.13,0.21-0.19,0.32c-2.96,5.18-3.52,10.93-1.6,16.19
			c1.91,5.23,5.92,9.15,11.32,11.05c2.06,0.87,4.72,1.72,8.12,2.6c3.35,0.87,7.18,1.68,11.39,2.41c4.11,0.72,8.67,1.34,13.54,1.82
			c4.96,0.49,9.99,0.73,14.95,0.73c5.05,0,10.07-0.25,14.92-0.74c4.75-0.48,9.25-1.09,13.38-1.82c4.12-0.74,7.82-1.56,11.02-2.45
			c3.27-0.9,5.84-1.78,7.84-2.68c5.48-2.11,9.46-6.12,11.22-11.3c1.6-4.7,1.34-9.74-0.73-14.57c-0.18-0.43-0.39-0.85-0.62-1.25
			c-2.05-3.58-5.18-6.18-9.03-7.52c-1.79-0.62-3.64-0.98-5.54-1.09c2.26-12.01,3.4-23,3.4-32.73v-9.26
			C591.87,19.62,584.33,12.13,573.54,12.13L573.54,12.13z M521.09,76.22h26.93c-0.18,0.77-0.36,1.54-0.55,2.3
			c-0.48,0-0.98,0.01-1.47,0.01c-4.36,0-8.41-0.17-12.04-0.51c-3.71-0.35-7-0.76-9.77-1.24C523.08,76.59,522.05,76.4,521.09,76.22
			L521.09,76.22z"/>
	</g>
</g>
<path class="st2" d="M10.65,40.17c0,0,19.74-6.83,34.04,0"/>
<path class="st2" d="M17.67,9.61c0,0,28.64,1.65,34.48,14.52"/>
<g>
	<path class="st3" d="M152.24,90.98c0.9,2.11,1.03,4.1,0.4,5.98c-0.64,1.88-2.13,3.24-4.46,4.06c-1.43,0.68-3.58,1.41-6.44,2.2
		c-2.86,0.79-6.17,1.52-9.94,2.2c-3.84,0.68-8,1.24-12.48,1.69c-4.48,0.45-9.05,0.68-13.72,0.68c-4.59,0-9.19-0.23-13.78-0.68
		c-4.59-0.45-8.81-1.02-12.65-1.69c-3.92-0.68-7.4-1.41-10.45-2.2c-3.05-0.79-5.33-1.52-6.83-2.2c-2.18-0.68-3.63-1.99-4.35-3.95
		c-0.72-1.96-0.47-3.99,0.73-6.1c0.6-0.98,1.39-1.62,2.37-1.92c0.98-0.3,1.96-0.45,2.94-0.45c0.98,0.08,1.98,0.25,2.99,0.51
		c1.02,0.26,2.01,0.51,2.99,0.73c0.83,0.3,2.3,0.72,4.4,1.24c2.11,0.53,4.7,1.06,7.79,1.58c3.09,0.53,6.62,0.98,10.61,1.35
		c1.65,0.15,3.39,0.3,5.19,0.45V75.85h14.91v18.63c2.33-0.07,4.48-0.23,6.44-0.45c3.84-0.45,7.09-0.96,9.77-1.52
		c2.67-0.56,4.87-1.11,6.61-1.64c1.73-0.53,3.09-0.94,4.06-1.24c0.9-0.23,1.96-0.47,3.16-0.73c1.2-0.26,2.45-0.43,3.73-0.51
		c1.2-0.07,2.35,0.08,3.44,0.45C150.79,89.21,151.64,89.93,152.24,90.98z M105.04,22.44c5.19,0,9.94,0.68,14.23,2.03
		c4.29,1.36,7.94,3.12,10.95,5.31c2.94,2.18,5.14,4.8,6.61,7.85s2.2,6.31,2.2,9.77c0,3.39-0.73,6.59-2.2,9.6
		c-1.47,3.01-3.67,5.61-6.61,7.79c-3.01,2.26-6.66,4.07-10.95,5.42s-9.03,2.03-14.23,2.03c-5.12,0-9.82-0.68-14.11-2.03
		s-7.94-3.16-10.95-5.42c-3.01-2.18-5.25-4.78-6.72-7.79c-1.47-3.01-2.2-6.21-2.2-9.6c0-3.46,0.73-6.72,2.2-9.77
		c1.47-3.05,3.71-5.66,6.72-7.85c3.01-2.18,6.66-3.95,10.95-5.31C95.22,23.11,99.92,22.44,105.04,22.44z M105.04,60.15
		c2.63,0,5.1-0.36,7.4-1.07c2.3-0.71,4.27-1.64,5.93-2.77c1.58-1.13,2.88-2.48,3.9-4.06c1.02-1.58,1.52-3.24,1.52-4.97
		c0-1.73-0.51-3.39-1.52-4.97c-1.02-1.58-2.31-2.94-3.9-4.07c-1.66-1.05-3.63-1.94-5.93-2.65c-2.3-0.71-4.76-1.07-7.4-1.07
		c-2.71,0-5.21,0.36-7.51,1.07c-2.3,0.72-4.31,1.6-6.04,2.65c-1.73,1.13-3.03,2.48-3.9,4.07c-0.87,1.58-1.3,3.24-1.3,4.97
		c0,1.73,0.43,3.39,1.3,4.97c0.86,1.58,2.16,2.94,3.9,4.06c1.73,1.13,3.74,2.05,6.04,2.77C99.83,59.8,102.33,60.15,105.04,60.15z"/>
	<g>
		<path class="st4" d="M158.9,59.7h92.71c1.88,0,2.82,1.32,2.82,3.95c0,5.35-1.81,8.02-5.42,8.02H158.9V59.7z M172.11,21.31h15.02
			v15.81c0,2.64,1.32,3.95,3.95,3.95h50.13c1.88,0,2.82,1.32,2.82,3.95c0,5.65-1.77,8.47-5.31,8.47h-53.98
			c-8.43,0-12.65-4.14-12.65-12.42V21.31z M172.68,94.14h50.81c1.43,0,2.15-1.17,2.15-3.5v-1.02h-52.96V77.99h61.65
			c4.21,0,6.32,2.07,6.32,6.21v2.37c0,12.27-3.24,18.41-9.71,18.41H187.7v1.81c0,1.88,0.94,2.82,2.82,2.82h49.57
			c1.88,0,2.82,1.17,2.82,3.5c0,5.42-1.81,8.13-5.42,8.13h-52.17c-8.43,0-12.65-4.14-12.65-12.42V94.14z"/>
	</g>
	<g>
		<path class="st4" d="M266.85,88.61h57.03c1.88,0,2.82,1.39,2.82,4.18c0,5.5-1.77,8.24-5.31,8.24h-54.54V88.61z M296.44,23.57
			c4.07,0,7.72,0.68,10.95,2.03c3.24,1.35,5.95,3.09,8.13,5.19c2.18,2.18,3.86,4.8,5.02,7.85c1.17,3.05,1.75,6.31,1.75,9.77
			c0,3.39-0.58,6.59-1.75,9.6c-1.17,3.01-2.84,5.61-5.02,7.79c-2.18,2.18-4.89,3.95-8.13,5.31c-3.24,1.35-6.89,2.03-10.95,2.03
			c-3.84,0-7.4-0.68-10.67-2.03c-3.27-1.35-6-3.12-8.19-5.31c-2.26-2.18-3.95-4.78-5.08-7.79c-1.13-3.01-1.69-6.21-1.69-9.6
			c0-3.46,0.57-6.72,1.69-9.77s2.82-5.66,5.08-7.85c2.18-2.11,4.91-3.84,8.19-5.19C289.04,24.24,292.6,23.57,296.44,23.57z
			 M296.44,60.38c1.58,0,3.03-0.32,4.35-0.96c1.32-0.64,2.5-1.56,3.56-2.77c1.05-1.13,1.84-2.43,2.37-3.9
			c0.53-1.47,0.79-3.07,0.79-4.8c0-1.66-0.26-3.22-0.79-4.69c-0.53-1.47-1.32-2.77-2.37-3.9c-1.06-1.13-2.24-2.01-3.56-2.65
			c-1.32-0.64-2.77-0.96-4.35-0.96c-1.51,0-2.94,0.32-4.29,0.96c-1.35,0.64-2.52,1.52-3.5,2.65c-0.98,1.13-1.75,2.43-2.31,3.9
			c-0.57,1.47-0.85,3.03-0.85,4.69c0,1.73,0.28,3.33,0.85,4.8c0.56,1.47,1.33,2.77,2.31,3.9c0.98,1.21,2.15,2.13,3.5,2.77
			C293.5,60.06,294.93,60.38,296.44,60.38z M346.91,106.45c0,10.24-2.97,15.36-8.92,15.36h-2.03c-2.71,0-4.07-1.32-4.07-3.95V20.18
			h15.02V106.45z"/>
	</g>
	<path class="st3" d="M430.47,22.1c4.14,0,7.87,0.7,11.18,2.09c3.31,1.39,6.1,3.18,8.36,5.36c2.18,2.18,3.86,4.84,5.03,7.96
		c1.17,3.12,1.75,6.46,1.75,9.99c0,3.46-0.58,6.74-1.75,9.82c-1.17,3.09-2.84,5.72-5.03,7.9c-2.26,2.26-5.04,4.08-8.36,5.48
		c-3.31,1.39-7.04,2.09-11.18,2.09c-3.92,0-7.55-0.7-10.9-2.09c-3.35-1.39-6.15-3.22-8.41-5.48c-2.26-2.18-3.99-4.82-5.19-7.9
		c-1.21-3.09-1.81-6.36-1.81-9.82c0-3.54,0.6-6.87,1.81-9.99c1.2-3.12,2.94-5.78,5.19-7.96c2.26-2.18,5.06-3.97,8.41-5.36
		C422.92,22.79,426.56,22.1,430.47,22.1z M449.56,76.64c4.97,0,9.47,0.64,13.49,1.92c4.03,1.28,7.43,2.94,10.22,4.97
		c2.78,2.11,4.91,4.61,6.38,7.51c1.47,2.9,2.2,5.97,2.2,9.2c0,3.24-0.73,6.29-2.2,9.15c-1.47,2.86-3.6,5.34-6.38,7.45
		c-2.79,2.11-6.19,3.8-10.22,5.08c-4.03,1.28-8.53,1.92-13.49,1.92c-4.89,0-9.36-0.64-13.38-1.92c-4.03-1.28-7.44-2.97-10.22-5.08
		c-2.86-2.11-5.03-4.59-6.49-7.45c-1.47-2.86-2.2-5.91-2.2-9.15c0-3.24,0.73-6.3,2.2-9.2c1.47-2.9,3.63-5.4,6.49-7.51
		c2.78-2.03,6.19-3.69,10.22-4.97C440.2,77.28,444.66,76.64,449.56,76.64z M430.47,60.04c1.58,0,3.09-0.34,4.52-1.02
		c1.43-0.68,2.67-1.62,3.73-2.82c1.05-1.2,1.88-2.58,2.48-4.12c0.6-1.54,0.9-3.22,0.9-5.02c0-1.73-0.3-3.37-0.9-4.91
		c-0.6-1.54-1.43-2.92-2.48-4.12c-1.05-1.13-2.3-2.03-3.73-2.71c-1.43-0.68-2.94-1.02-4.52-1.02c-1.66,0-3.18,0.34-4.57,1.02
		c-1.39,0.68-2.62,1.58-3.67,2.71c-1.05,1.21-1.86,2.58-2.43,4.12c-0.56,1.54-0.85,3.18-0.85,4.91c0,1.81,0.28,3.48,0.85,5.02
		c0.56,1.54,1.37,2.92,2.43,4.12c1.05,1.21,2.28,2.15,3.67,2.82C427.29,59.7,428.82,60.04,430.47,60.04z M449.56,111.64
		c2.48,0,4.8-0.3,6.94-0.9c2.15-0.6,4.01-1.43,5.59-2.48c1.58-1.05,2.82-2.28,3.73-3.67c0.9-1.39,1.36-2.88,1.36-4.46
		c0-1.5-0.45-2.95-1.36-4.35c-0.9-1.39-2.14-2.61-3.73-3.67c-1.58-0.98-3.44-1.77-5.59-2.37c-2.15-0.6-4.46-0.9-6.94-0.9
		c-2.56,0-4.91,0.3-7.06,0.9c-2.15,0.6-4.01,1.39-5.59,2.37c-1.66,1.06-2.9,2.28-3.73,3.67c-0.83,1.39-1.24,2.84-1.24,4.35
		c0,1.58,0.41,3.07,1.24,4.46c0.83,1.39,2.07,2.62,3.73,3.67c1.58,1.06,3.44,1.88,5.59,2.48C444.64,111.34,447,111.64,449.56,111.64
		z M482.42,62.41c0,10.24-2.97,15.36-8.92,15.36h-2.03c-2.71,0-4.07-1.32-4.07-3.95V20.18h15.02V62.41z"/>
	<g>
		<path class="st4" d="M592.63,86.91c0.9,2.11,1.03,4.1,0.4,5.98c-0.64,1.88-2.13,3.24-4.46,4.07c-1.43,0.68-3.58,1.41-6.44,2.2
			c-2.86,0.79-6.17,1.52-9.94,2.2c-3.84,0.68-8,1.24-12.48,1.69c-4.48,0.45-9.05,0.68-13.72,0.68c-4.59,0-9.19-0.23-13.78-0.68
			c-4.59-0.45-8.81-1.02-12.65-1.69c-3.92-0.68-7.4-1.41-10.45-2.2s-5.33-1.52-6.83-2.2c-2.18-0.68-3.63-1.99-4.35-3.95
			c-0.72-1.96-0.47-3.99,0.73-6.1c0.6-0.98,1.39-1.62,2.37-1.92c0.98-0.3,1.96-0.45,2.94-0.45c0.98,0.08,1.98,0.25,2.99,0.51
			c1.02,0.26,2.01,0.51,2.99,0.73c0.83,0.3,2.29,0.72,4.4,1.24c2.11,0.53,4.7,1.06,7.79,1.58c3.09,0.53,6.64,0.98,10.67,1.36
			c4.03,0.38,8.41,0.56,13.16,0.56c5.12,0,9.58-0.21,13.38-0.62c3.8-0.41,7.06-0.92,9.77-1.52c2.63-0.53,4.82-1.05,6.55-1.58
			c1.73-0.53,3.09-0.94,4.07-1.24c0.9-0.23,1.96-0.47,3.16-0.73c1.2-0.26,2.45-0.43,3.73-0.51c1.2-0.07,2.35,0.08,3.44,0.45
			C591.18,85.15,592.02,85.86,592.63,86.91z M564.85,36.55h-53.98V24.13h62.67c4.21,0,6.32,2.07,6.32,6.21v9.26
			c0,10.77-1.51,23.11-4.52,37.04c-0.9,3.24-3.16,4.86-6.78,4.86h-9.49c1.43-5.8,2.6-11.55,3.5-17.28H512V51.8h52.17
			C564.62,46.68,564.85,41.6,564.85,36.55z"/>
	</g>
</g>
</svg>
