<svg xmlns="http://www.w3.org/2000/svg" viewBox="0 0 800 799.989"><path d="M759.967 40.013C736.545 16.57 703.901 1.97 668.135 2H131.873c-35.807-.031-68.41 14.57-91.84 38.013C16.538 63.454 2 96.088 2 131.865v536.24c0 35.821 14.538 68.422 38.033 91.852 23.43 23.495 56.033 38.076 91.84 38.033h536.262c35.766.043 68.41-14.538 91.832-38.033C783.462 736.526 798 703.925 798 668.105v-536.24c0-35.777-14.538-68.411-38.033-91.852zm-31.479 31.488c15.502 15.522 24.967 36.721 24.967 60.363v118.704l-136.038 83.267c-8.396 5.113-17.491 7.516-26.585 7.516-8.609 0-17.174-2.16-24.725-6.322-7.537-4.161-14.112-10.207-18.953-18.137-5.124-8.375-7.518-17.501-7.518-26.598 0-7.824 1.854-15.563 5.284-22.574 6.322-2.91 12.081-6.883 16.93-11.71a58.446 58.446 0 0017.111-41.337V46.504h89.174c23.665 0 44.82 9.517 60.353 24.997zM279.474 236.01c-.964 0-1.875-.148-2.795-.295-2.288-1.347-4.84-2.14-7.445-2.437-1.726-.963-3.409-2.105-4.818-3.535-3.905-3.897-6.247-9.116-6.247-15.068V46.504h123.268V236.01H279.474zM418.56 46.504h123.301v168.171c0 5.952-2.383 11.171-6.28 15.068-3.886 3.897-9.106 6.267-15.088 6.267H418.56V46.504zM71.501 71.501c15.511-15.481 36.719-24.998 60.372-24.998h89.185v168.171a58.415 58.415 0 0017.133 41.337c4.816 4.827 10.567 8.8 16.899 11.71 3.42 7.011 5.293 14.75 5.293 22.574-.033 9.118-2.414 18.224-7.529 26.598-4.838 7.93-11.402 13.976-18.963 18.137-7.549 4.161-16.105 6.322-24.693 6.322-8.808 0-17.649-2.308-25.802-7.093l-27.169-22.68c-7.867-6.534-19.579-5.484-26.121 2.413-6.564 7.835-5.506 19.546 2.361 26.089h-.011l29.604 24.703 1.154.698c14.305 8.767 30.304 13.002 45.984 12.95a88.526 88.526 0 0042.513-10.885 87.189 87.189 0 0032.759-31.276 87.83 87.83 0 0013.013-45.976c0-5.79-.644-11.541-1.735-17.183h208.513c-1.102 5.642-1.737 11.393-1.737 17.183a87.909 87.909 0 0012.969 45.976c8.292 13.562 19.77 24.172 32.783 31.276a88.571 88.571 0 0042.554 10.885c15.658.052 31.616-4.183 45.952-12.95l116.672-71.426v206.86l-116.672-71.394c-14.305-8.778-30.294-13.013-45.952-13.013a88.602 88.602 0 00-42.554 10.905 88.385 88.385 0 00-32.783 31.297 87.767 87.767 0 00-12.969 45.976c0 5.8.635 11.541 1.737 17.163H295.749c1.091-5.622 1.735-11.363 1.735-17.163a87.699 87.699 0 00-13.013-45.976 87.818 87.818 0 00-32.759-31.297c-13.056-7.147-27.668-10.905-42.513-10.905a87.937 87.937 0 00-45.984 13.013L46.49 500.916V131.865c0-23.643 9.542-44.842 25.011-60.364zm186.668 508.818c0-5.961 2.342-11.172 6.247-15.109 3.897-3.886 9.116-6.215 15.099-6.247h101.922v194.536H258.169v-173.18zm160.391-21.357h101.933c5.983.032 11.202 2.361 15.088 6.247 3.896 3.938 6.28 9.149 6.28 15.109v173.18H418.56V558.962zM71.501 728.49c-15.47-15.513-25.011-36.731-25.011-60.385V544.414l136.091-83.265c8.396-5.126 17.513-7.551 26.618-7.551 8.588 0 17.144 2.214 24.693 6.343 7.561 4.172 14.125 10.186 18.963 18.116 5.115 8.387 7.496 17.515 7.529 26.631 0 7.823-1.874 15.552-5.293 22.584-6.332 2.931-12.083 6.85-16.899 11.721-10.558 10.482-17.133 25.232-17.133 41.326v173.18h-89.185c-23.654-.001-44.861-9.55-60.373-25.009zm656.987 0c-15.533 15.459-36.688 25.008-60.353 25.008h-89.174v-173.18c0-16.095-6.564-30.844-17.111-41.326-4.849-4.87-10.608-8.789-16.93-11.721-3.43-7.033-5.284-14.761-5.284-22.584 0-9.116 2.394-18.244 7.518-26.631 4.84-7.93 11.415-13.943 18.953-18.116 7.551-4.129 16.116-6.343 24.725-6.343 9.094 0 18.189 2.425 26.585 7.551l136.038 83.265v123.691c0 23.655-9.465 44.873-24.967 60.386z" fill="#d3bcec"/></svg>